<mxfile host="app.diagrams.net" modified="2020-05-06T04:42:50.112Z" agent="5.0 (Windows NT 10.0; Win64; x64) AppleWebKit/537.36 (KHTML, like Gecko) Chrome/81.0.4044.129 Safari/537.36" etag="8eaLZvLLj8QqnMbVWEbR" version="13.0.8" type="github">
  <diagram id="Lk74XoYKnYpU-4dZqS-C" name="Page-1">
    <mxGraphModel dx="782" dy="469" grid="1" gridSize="10" guides="1" tooltips="1" connect="1" arrows="1" fold="1" page="1" pageScale="1" pageWidth="827" pageHeight="1169" math="0" shadow="0">
      <root>
        <mxCell id="0" />
        <mxCell id="1" parent="0" />
        <mxCell id="1xcK4z-7fmxsR_L0OcB_-3" style="edgeStyle=orthogonalEdgeStyle;rounded=0;orthogonalLoop=1;jettySize=auto;html=1;exitX=0.5;exitY=1;exitDx=0;exitDy=0;" parent="1" edge="1">
          <mxGeometry relative="1" as="geometry">
            <mxPoint x="410" y="100" as="sourcePoint" />
            <mxPoint x="410" y="100" as="targetPoint" />
          </mxGeometry>
        </mxCell>
        <mxCell id="1xcK4z-7fmxsR_L0OcB_-4" value="Click on a Pending Appointment" style="rounded=1;whiteSpace=wrap;html=1;arcSize=40;fontColor=#000000;fillColor=#ffffc0;strokeColor=#ff0000;" parent="1" vertex="1">
          <mxGeometry x="339" y="80" width="120" height="40" as="geometry" />
        </mxCell>
        <mxCell id="1xcK4z-7fmxsR_L0OcB_-5" value="" style="edgeStyle=orthogonalEdgeStyle;html=1;verticalAlign=bottom;endArrow=open;endSize=8;strokeColor=#ff0000;entryX=0.5;entryY=0;entryDx=0;entryDy=0;" parent="1" source="1xcK4z-7fmxsR_L0OcB_-4" edge="1">
          <mxGeometry relative="1" as="geometry">
            <mxPoint x="399" y="170" as="targetPoint" />
            <Array as="points" />
          </mxGeometry>
        </mxCell>
        <mxCell id="1xcK4z-7fmxsR_L0OcB_-12" value="" style="edgeStyle=orthogonalEdgeStyle;rounded=0;orthogonalLoop=1;jettySize=auto;html=1;entryX=0.5;entryY=0;entryDx=0;entryDy=0;" parent="1" source="1xcK4z-7fmxsR_L0OcB_-6" target="1xcK4z-7fmxsR_L0OcB_-4" edge="1">
          <mxGeometry relative="1" as="geometry">
            <mxPoint x="399" y="90" as="targetPoint" />
          </mxGeometry>
        </mxCell>
        <mxCell id="1xcK4z-7fmxsR_L0OcB_-6" value="" style="ellipse;html=1;shape=startState;fillColor=#000000;strokeColor=#ff0000;" parent="1" vertex="1">
          <mxGeometry x="384" width="30" height="30" as="geometry" />
        </mxCell>
        <mxCell id="RRGvB8VW4mvUHMfBtY_i-10" value="" style="edgeStyle=orthogonalEdgeStyle;rounded=0;orthogonalLoop=1;jettySize=auto;html=1;" parent="1" source="1xcK4z-7fmxsR_L0OcB_-39" target="bRZfs8WozpuxWaC240LR-1" edge="1">
          <mxGeometry relative="1" as="geometry">
            <mxPoint x="650" y="340" as="targetPoint" />
          </mxGeometry>
        </mxCell>
        <mxCell id="1xcK4z-7fmxsR_L0OcB_-39" value="Confirm the Appointment" style="rhombus;whiteSpace=wrap;html=1;fillColor=#ffffc0;strokeColor=#ff0000;" parent="1" vertex="1">
          <mxGeometry x="320" y="170" width="149" height="66" as="geometry" />
        </mxCell>
        <mxCell id="1xcK4z-7fmxsR_L0OcB_-41" value="Yes" style="edgeStyle=orthogonalEdgeStyle;html=1;align=left;verticalAlign=top;endArrow=open;endSize=8;strokeColor=#ff0000;entryX=0.5;entryY=0;entryDx=0;entryDy=0;" parent="1" source="1xcK4z-7fmxsR_L0OcB_-39" target="1xcK4z-7fmxsR_L0OcB_-46" edge="1">
          <mxGeometry x="-1" relative="1" as="geometry">
            <mxPoint x="400" y="380" as="targetPoint" />
          </mxGeometry>
        </mxCell>
        <mxCell id="1xcK4z-7fmxsR_L0OcB_-42" value="Reschedule" style="rounded=1;whiteSpace=wrap;html=1;arcSize=40;fontColor=#000000;fillColor=#ffffc0;strokeColor=#ff0000;" parent="1" vertex="1">
          <mxGeometry x="703" y="210" width="120" height="40" as="geometry" />
        </mxCell>
        <mxCell id="RRGvB8VW4mvUHMfBtY_i-18" value="" style="edgeStyle=orthogonalEdgeStyle;rounded=0;orthogonalLoop=1;jettySize=auto;html=1;entryX=0.365;entryY=0.267;entryDx=0;entryDy=0;entryPerimeter=0;" parent="1" source="1xcK4z-7fmxsR_L0OcB_-46" target="1xcK4z-7fmxsR_L0OcB_-48" edge="1">
          <mxGeometry relative="1" as="geometry">
            <mxPoint x="395" y="530" as="targetPoint" />
            <Array as="points">
              <mxPoint x="395" y="430" />
              <mxPoint x="393" y="430" />
            </Array>
          </mxGeometry>
        </mxCell>
        <mxCell id="1xcK4z-7fmxsR_L0OcB_-46" value="Accept the scheduled Appointment" style="rounded=1;whiteSpace=wrap;html=1;arcSize=40;fontColor=#000000;fillColor=#ffffc0;strokeColor=#ff0000;" parent="1" vertex="1">
          <mxGeometry x="334.5" y="290" width="120" height="40" as="geometry" />
        </mxCell>
        <mxCell id="1xcK4z-7fmxsR_L0OcB_-51" value="" style="edgeStyle=orthogonalEdgeStyle;html=1;verticalAlign=bottom;endArrow=open;endSize=8;strokeColor=#ff0000;" parent="1" source="1xcK4z-7fmxsR_L0OcB_-50" target="1xcK4z-7fmxsR_L0OcB_-53" edge="1">
          <mxGeometry relative="1" as="geometry">
            <mxPoint x="630" y="730" as="targetPoint" />
          </mxGeometry>
        </mxCell>
        <mxCell id="1xcK4z-7fmxsR_L0OcB_-50" value="Back to the Booking Calendar" style="rounded=1;whiteSpace=wrap;html=1;arcSize=40;fontColor=#000000;fillColor=#ffffc0;strokeColor=#ff0000;" parent="1" vertex="1">
          <mxGeometry x="355" y="620" width="130" height="40" as="geometry" />
        </mxCell>
        <mxCell id="1xcK4z-7fmxsR_L0OcB_-52" value="" style="edgeStyle=orthogonalEdgeStyle;html=1;verticalAlign=bottom;endArrow=open;endSize=8;strokeColor=#ff0000;" parent="1" source="1xcK4z-7fmxsR_L0OcB_-48" target="1xcK4z-7fmxsR_L0OcB_-50" edge="1">
          <mxGeometry relative="1" as="geometry">
            <mxPoint x="630" y="665" as="targetPoint" />
            <mxPoint x="630" y="595" as="sourcePoint" />
          </mxGeometry>
        </mxCell>
        <mxCell id="1xcK4z-7fmxsR_L0OcB_-53" value="" style="ellipse;html=1;shape=endState;fillColor=#000000;strokeColor=#ff0000;" parent="1" vertex="1">
          <mxGeometry x="405" y="700" width="30" height="30" as="geometry" />
        </mxCell>
        <mxCell id="1xcK4z-7fmxsR_L0OcB_-48" value="" style="shape=line;html=1;strokeWidth=6;strokeColor=#ff0000;" parent="1" vertex="1">
          <mxGeometry x="320" y="540" width="200" height="10" as="geometry" />
        </mxCell>
        <mxCell id="9wQjwLWXGUns_v5oUAE9-1" value="" style="edgeStyle=orthogonalEdgeStyle;html=1;verticalAlign=bottom;endArrow=open;endSize=8;strokeColor=#ff0000;entryX=0.5;entryY=0;entryDx=0;entryDy=0;" parent="1" source="1xcK4z-7fmxsR_L0OcB_-42" target="XzFYtpa7LjvcY1_RKWXd-4" edge="1">
          <mxGeometry relative="1" as="geometry">
            <mxPoint x="620" y="330" as="targetPoint" />
            <Array as="points" />
            <mxPoint x="670" y="490" as="sourcePoint" />
          </mxGeometry>
        </mxCell>
        <mxCell id="9wQjwLWXGUns_v5oUAE9-2" style="edgeStyle=orthogonalEdgeStyle;rounded=0;orthogonalLoop=1;jettySize=auto;html=1;exitX=1;exitY=0.5;exitDx=0;exitDy=0;entryX=1;entryY=0;entryDx=0;entryDy=0;" parent="1" source="1xcK4z-7fmxsR_L0OcB_-53" target="1xcK4z-7fmxsR_L0OcB_-53" edge="1">
          <mxGeometry relative="1" as="geometry" />
        </mxCell>
        <mxCell id="RRGvB8VW4mvUHMfBtY_i-12" value="No" style="text;html=1;align=center;verticalAlign=middle;resizable=0;points=[];autosize=1;" parent="1" vertex="1">
          <mxGeometry x="479" y="180" width="30" height="20" as="geometry" />
        </mxCell>
        <mxCell id="XzFYtpa7LjvcY1_RKWXd-4" value="Insert the Appointment Info" style="rounded=1;whiteSpace=wrap;html=1;arcSize=40;fontColor=#000000;fillColor=#ffffc0;strokeColor=#ff0000;" parent="1" vertex="1">
          <mxGeometry x="600" y="330" width="120" height="40" as="geometry" />
        </mxCell>
        <mxCell id="XzFYtpa7LjvcY1_RKWXd-5" value="" style="edgeStyle=orthogonalEdgeStyle;html=1;verticalAlign=bottom;endArrow=open;endSize=8;strokeColor=#ff0000;" parent="1" source="XzFYtpa7LjvcY1_RKWXd-4" target="XzFYtpa7LjvcY1_RKWXd-6" edge="1">
          <mxGeometry relative="1" as="geometry">
            <mxPoint x="660" y="410" as="targetPoint" />
          </mxGeometry>
        </mxCell>
        <mxCell id="XzFYtpa7LjvcY1_RKWXd-10" value="" style="edgeStyle=orthogonalEdgeStyle;rounded=0;orthogonalLoop=1;jettySize=auto;html=1;" parent="1" source="XzFYtpa7LjvcY1_RKWXd-6" edge="1">
          <mxGeometry relative="1" as="geometry">
            <mxPoint x="805" y="430" as="targetPoint" />
          </mxGeometry>
        </mxCell>
        <mxCell id="XzFYtpa7LjvcY1_RKWXd-13" value="" style="edgeStyle=orthogonalEdgeStyle;rounded=0;orthogonalLoop=1;jettySize=auto;html=1;" parent="1" source="XzFYtpa7LjvcY1_RKWXd-6" edge="1">
          <mxGeometry relative="1" as="geometry">
            <mxPoint x="660" y="500" as="targetPoint" />
            <Array as="points">
              <mxPoint x="660" y="500" />
              <mxPoint x="660" y="500" />
            </Array>
          </mxGeometry>
        </mxCell>
        <mxCell id="XzFYtpa7LjvcY1_RKWXd-6" value="Save Changes" style="rhombus;whiteSpace=wrap;html=1;fillColor=#ffffc0;strokeColor=#ff0000;" parent="1" vertex="1">
          <mxGeometry x="595" y="400" width="130" height="60" as="geometry" />
        </mxCell>
        <mxCell id="XzFYtpa7LjvcY1_RKWXd-11" value="No" style="text;html=1;align=center;verticalAlign=middle;resizable=0;points=[];autosize=1;" parent="1" vertex="1">
          <mxGeometry x="743" y="411" width="30" height="20" as="geometry" />
        </mxCell>
        <mxCell id="XzFYtpa7LjvcY1_RKWXd-15" value="Yes" style="text;html=1;align=center;verticalAlign=middle;resizable=0;points=[];autosize=1;" parent="1" vertex="1">
          <mxGeometry x="673" y="472" width="30" height="20" as="geometry" />
        </mxCell>
        <mxCell id="XzFYtpa7LjvcY1_RKWXd-21" value="Yes" style="text;html=1;align=center;verticalAlign=middle;resizable=0;points=[];autosize=1;" parent="1" vertex="1">
          <mxGeometry x="563" y="472" width="30" height="20" as="geometry" />
        </mxCell>
        <mxCell id="XzFYtpa7LjvcY1_RKWXd-19" value="Cancel" style="rounded=1;whiteSpace=wrap;html=1;arcSize=40;fontColor=#000000;fillColor=#ffffc0;strokeColor=#ff0000;" parent="1" vertex="1">
          <mxGeometry x="810" y="411" width="120" height="40" as="geometry" />
        </mxCell>
        <mxCell id="XzFYtpa7LjvcY1_RKWXd-20" value="" style="edgeStyle=orthogonalEdgeStyle;html=1;verticalAlign=bottom;endArrow=open;endSize=8;strokeColor=#ff0000;" parent="1" source="XzFYtpa7LjvcY1_RKWXd-19" edge="1">
          <mxGeometry relative="1" as="geometry">
            <mxPoint x="400" y="130" as="targetPoint" />
            <Array as="points">
              <mxPoint x="870" y="130" />
            </Array>
          </mxGeometry>
        </mxCell>
        <mxCell id="XzFYtpa7LjvcY1_RKWXd-24" value="Appointment is Rescheduled" style="rounded=1;whiteSpace=wrap;html=1;arcSize=40;fontColor=#000000;fillColor=#ffffc0;strokeColor=#ff0000;" parent="1" vertex="1">
          <mxGeometry x="595" y="500" width="120" height="40" as="geometry" />
        </mxCell>
        <mxCell id="XzFYtpa7LjvcY1_RKWXd-25" value="" style="edgeStyle=orthogonalEdgeStyle;html=1;verticalAlign=bottom;endArrow=open;endSize=8;strokeColor=#ff0000;entryX=0.75;entryY=0.5;entryDx=0;entryDy=0;entryPerimeter=0;" parent="1" source="XzFYtpa7LjvcY1_RKWXd-24" target="1xcK4z-7fmxsR_L0OcB_-48" edge="1">
          <mxGeometry relative="1" as="geometry">
            <mxPoint x="480" y="510" as="targetPoint" />
            <Array as="points">
              <mxPoint x="470" y="510" />
            </Array>
          </mxGeometry>
        </mxCell>
        <mxCell id="bRZfs8WozpuxWaC240LR-1" value="Reject Appointment" style="rhombus;whiteSpace=wrap;html=1;fillColor=#ffffc0;strokeColor=#ff0000;" parent="1" vertex="1">
          <mxGeometry x="560" y="140" width="120" height="60" as="geometry" />
        </mxCell>
        <mxCell id="bRZfs8WozpuxWaC240LR-2" value="no" style="edgeStyle=orthogonalEdgeStyle;html=1;align=left;verticalAlign=bottom;endArrow=open;endSize=8;strokeColor=#ff0000;" parent="1" source="bRZfs8WozpuxWaC240LR-1" edge="1">
          <mxGeometry x="-1" relative="1" as="geometry">
            <mxPoint x="760" y="210" as="targetPoint" />
          </mxGeometry>
        </mxCell>
        <mxCell id="bRZfs8WozpuxWaC240LR-3" value="yes" style="edgeStyle=orthogonalEdgeStyle;html=1;align=left;verticalAlign=top;endArrow=open;endSize=8;strokeColor=#ff0000;entryX=0.447;entryY=0.033;entryDx=0;entryDy=0;entryPerimeter=0;" parent="1" source="bRZfs8WozpuxWaC240LR-1" target="bRZfs8WozpuxWaC240LR-4" edge="1">
          <mxGeometry x="-1" relative="1" as="geometry">
            <mxPoint x="540" y="240" as="targetPoint" />
            <Array as="points">
              <mxPoint x="620" y="240" />
              <mxPoint x="544" y="240" />
            </Array>
          </mxGeometry>
        </mxCell>
        <mxCell id="bRZfs8WozpuxWaC240LR-4" value="Appointment Deleted from the Booking Calendar" style="rounded=1;whiteSpace=wrap;html=1;arcSize=40;fontColor=#000000;fillColor=#ffffc0;strokeColor=#ff0000;" parent="1" vertex="1">
          <mxGeometry x="490" y="260" width="120" height="40" as="geometry" />
        </mxCell>
        <mxCell id="bRZfs8WozpuxWaC240LR-5" value="" style="edgeStyle=orthogonalEdgeStyle;html=1;verticalAlign=bottom;endArrow=open;endSize=8;strokeColor=#ff0000;entryX=0.618;entryY=0.267;entryDx=0;entryDy=0;entryPerimeter=0;" parent="1" source="bRZfs8WozpuxWaC240LR-4" target="1xcK4z-7fmxsR_L0OcB_-48" edge="1">
          <mxGeometry relative="1" as="geometry">
            <mxPoint x="550" y="370" as="targetPoint" />
          </mxGeometry>
        </mxCell>
      </root>
    </mxGraphModel>
  </diagram>
</mxfile>
